<?xml version="1.0" standalone="no"?>
<!DOCTYPE svg PUBLIC "-//W3C//DTD SVG 20010904//EN"
 "http://www.w3.org/TR/2001/REC-SVG-20010904/DTD/svg10.dtd">
<svg version="1.0" xmlns="http://www.w3.org/2000/svg"
 width="512.000000pt" height="512.000000pt" viewBox="0 0 512.000000 512.000000"
 preserveAspectRatio="xMidYMid meet">
<metadata>
Created by potrace 1.11, written by Peter Selinger 2001-2013
</metadata>
<g transform="translate(0.000000,512.000000) scale(0.100000,-0.100000)"
fill="#000000" stroke="none">
<path d="M1290 5008 c-17 -56 -35 -114 -40 -128 -5 -14 -13 -41 -19 -60 -5
-19 -26 -89 -46 -155 -81 -272 -155 -630 -179 -875 -3 -30 -8 -73 -11 -95 -8
-71 -15 -176 -20 -350 -6 -156 -9 -184 -48 -335 l-41 -165 -1 -1068 c-2 -969
0 -1067 14 -1068 9 -1 48 -2 86 -3 l70 -1 0 -175 0 -175 -60 -2 c-33 0 -72 -2
-86 -2 l-26 -1 0 -175 1 -175 441 0 441 0 0 175 c0 200 14 178 -108 176 l-68
0 0 178 0 179 80 -2 c45 -1 84 1 89 4 9 6 9 2096 -1 2105 -4 4 -4 13 -2 19 3
7 -14 87 -37 177 -38 151 -41 176 -44 319 -3 145 -9 250 -20 345 -3 22 -7 65
-10 95 -8 79 -42 306 -59 391 -9 41 -17 86 -20 102 -3 15 -7 35 -10 45 -3 9
-7 28 -10 42 -3 14 -12 54 -21 90 -9 36 -18 70 -19 75 -6 25 -31 108 -76 258
-85 283 -100 330 -104 335 -3 2 -19 -43 -36 -100z"/>
<path d="M2558 5104 c-3 -5 -20 -56 -38 -114 -17 -58 -45 -145 -60 -195 -16
-49 -38 -126 -50 -170 -12 -44 -25 -91 -30 -105 -5 -14 -11 -36 -14 -50 -2
-14 -11 -52 -20 -85 -8 -33 -22 -93 -30 -132 -15 -70 -20 -96 -31 -165 -3 -18
-10 -58 -15 -88 -5 -30 -12 -74 -15 -97 -3 -24 -8 -62 -11 -85 -6 -44 -7 -53
-19 -203 -11 -127 -13 -174 -15 -312 -1 -67 -6 -137 -10 -155 -5 -18 -22 -89
-40 -158 -17 -69 -33 -138 -36 -155 -6 -42 -7 -2113 0 -2123 2 -4 41 -7 85 -6
45 2 81 0 81 -4 1 -4 2 -83 3 -177 l2 -170 -88 0 -87 0 -1 -42 c0 -24 0 -103
-1 -175 l0 -133 441 -3 441 -2 1 52 c1 139 -2 292 -7 297 -3 3 -40 4 -84 3
-54 -1 -79 2 -82 11 -2 7 -3 55 -2 107 1 52 2 127 3 166 l1 72 76 -2 c41 -1
80 1 85 5 11 6 15 2056 5 2124 -3 17 -22 95 -42 175 -21 80 -38 172 -40 205
-1 33 -5 132 -8 220 -4 88 -8 171 -10 185 -2 14 -7 59 -10 100 -3 41 -8 85
-10 97 -3 12 -7 46 -11 76 -9 89 -53 328 -81 444 -14 59 -27 117 -30 128 -4
24 -95 335 -151 519 -22 71 -42 125 -45 120z"/>
<path d="M3787 5094 c-4 -10 -40 -130 -81 -266 -62 -202 -132 -465 -152 -563
-2 -11 -11 -54 -19 -95 -8 -41 -17 -93 -21 -115 -3 -22 -12 -80 -19 -130 -16
-105 -24 -169 -30 -245 -2 -30 -7 -91 -10 -135 -4 -44 -8 -145 -10 -225 -2
-118 -8 -165 -30 -250 -15 -58 -28 -112 -30 -120 -2 -8 -9 -35 -16 -60 -10
-36 -13 -270 -14 -1113 l-1 -1067 20 -1 c12 -1 51 -2 89 -2 l67 1 0 -178 0
-178 -87 1 -88 1 0 -177 -1 -177 441 0 441 0 1 175 0 175 -26 1 c-14 0 -53 2
-86 2 l-60 2 -3 176 -2 175 82 1 c46 1 86 2 89 2 3 1 5 481 5 1068 l-2 1068
-41 161 c-39 152 -42 172 -47 345 -8 231 -14 310 -51 591 -33 256 -95 509
-240 988 -54 177 -60 192 -68 164z"/>
</g>
</svg>
